<svg version="1.0" xmlns="http://www.w3.org/2000/svg" width="277px" height="40px" viewBox="0 0 2770 400" preserveAspectRatio="xMidYMid meet">
<g id="layer101" stroke="none">
 <path fill="#ffffff" d="M482 373 c-84 -41 -83 -176 2 -217 43 -20 69 -20 112 0 39 19 64 59 64 104 l0 30 -81 0 c-71 0 -80 2 -69 15 15 18 41 20 57 4 13 -13 63 16 63 36 0 16 -60 45 -92 45 -12 0 -38 -8 -56 -17z m88 -148 c-7 -8 -20 -15 -30 -15 -10 0 -23 7 -30 15 -11 13 -7 15 30 15 37 0 41 -2 30 -15z"/>
 <path fill="#ffffff" d="M1174 379 c-49 -14 -58 -32 -30 -58 23 -21 26 -22 54 -7 20 10 33 12 37 6 9 -15 -2 -27 -32 -35 -62 -15 -82 -69 -44 -116 16 -20 28 -24 68 -23 26 0 58 6 71 13 22 12 22 13 6 40 -16 28 -18 28 -50 15 -21 -9 -35 -10 -39 -4 -4 6 11 18 32 26 51 21 73 42 73 70 0 36 -10 54 -41 69 -31 17 -59 18 -105 4z"/>
 <path fill="#ffffff" d="M1873 370 c-92 -55 -78 -184 24 -219 35 -13 46 -13 78 0 46 17 73 52 82 102 l6 37 -82 0 c-46 0 -81 4 -81 10 0 15 50 24 62 12 8 -8 19 -7 40 6 36 21 35 28 -4 52 -42 25 -84 25 -125 0z m95 -146 c-11 -11 -25 -14 -42 -10 -40 10 -31 26 16 26 39 0 41 -1 26 -16z"/>
 <path fill="#ffffff" d="M2140 368 c-49 -33 -69 -91 -49 -143 25 -67 96 -97 167 -72 22 8 22 7 22 -67 l0 -76 35 0 35 0 0 185 0 186 -42 -1 c-24 0 -63 2 -88 5 -37 6 -51 3 -80 -17z m111 -69 c22 -22 19 -55 -9 -76 -22 -18 -39 -16 -62 7 -24 24 -25 38 -4 68 19 28 48 28 75 1z"/>
 <path fill="#ffffff" d="M2600 383 c-55 -20 -68 -87 -24 -122 15 -12 38 -21 51 -21 31 0 73 42 73 73 0 46 -57 85 -100 70z m48 -66 c4 -20 -25 -34 -40 -19 -15 15 -1 44 19 40 10 -2 19 -11 21 -21z"/>
 <path fill="#ffffff" d="M70 195 c0 -169 2 -185 17 -185 10 0 59 42 110 92 l93 93 0 -93 0 -92 45 0 45 0 0 185 c0 229 2 228 -134 83 l-96 -102 0 102 0 102 -40 0 -40 0 0 -185z"/>
 <path fill="#ffffff" d="M758 298 c-34 -64 -49 -84 -68 -86 -22 -4 -59 -37 -60 -54 0 -5 29 -8 65 -8 l65 0 24 48 24 47 17 -40 c8 -22 22 -53 29 -70 l14 -30 16 40 c9 22 23 54 30 70 l14 30 18 -37 18 -38 83 0 c86 0 92 4 77 44 -5 12 -20 16 -60 16 l-54 0 -37 75 c-21 41 -43 75 -49 75 -6 0 -21 -24 -34 -52 l-22 -53 -24 53 c-13 28 -28 52 -33 52 -5 0 -29 -37 -53 -82z"/>
 <path fill="#ffffff" d="M1410 195 c0 -163 2 -185 16 -185 9 0 49 30 90 66 l74 66 74 -66 c41 -36 81 -66 90 -66 14 0 16 22 16 185 l0 185 -40 0 -40 0 0 -107 0 -107 -49 48 -49 48 -51 -47 -51 -48 0 107 0 106 -40 0 -40 0 0 -185z"/>
 <path fill="#ffffff" d="M2380 355 c0 -20 5 -25 25 -25 20 0 25 5 25 25 0 20 -5 25 -25 25 -20 0 -25 -5 -25 -25z"/>
 <path fill="#ffffff" d="M2450 316 l0 -63 47 -7 c25 -3 48 -4 51 -2 10 11 -11 45 -31 48 -18 2 -23 10 -25 46 -3 34 -7 42 -23 42 -17 0 -19 -7 -19 -64z"/>
  </g></svg>